HIERARCHY
ROOT Hips
{
	OFFSET -8.573047 99.095428 52.622734
	CHANNELS 6 Xposition Yposition Zposition Xrotation Yrotation Zrotation
	JOINT LeftUpLeg
	{
		OFFSET 8.910001 -6.269997 0.000000
		CHANNELS 6 Xposition Yposition Zposition Xrotation Yrotation Zrotation
		JOINT LeftLeg
		{
			OFFSET 3.858774 -44.428230 -5.033421
			CHANNELS 6 Xposition Yposition Zposition Xrotation Yrotation Zrotation
			JOINT LeftFoot
			{
				OFFSET 3.498571 -40.269054 -4.767723
				CHANNELS 6 Xposition Yposition Zposition Xrotation Yrotation Zrotation
				JOINT LeftToeBase
				{
					OFFSET 0.000009 -6.262318 12.954720
					CHANNELS 6 Xposition Yposition Zposition Xrotation Yrotation Zrotation
					JOINT LeftToeBaseEnd
					{
						OFFSET 0.000000 0.000000 8.000000
						CHANNELS 6 Xposition Yposition Zposition Xrotation Yrotation Zrotation
						End Site
						{
							OFFSET 0.000000 8.000000 0.000000
						}
					}
				}
			}
		}
	}
	JOINT RightUpLeg
	{
		OFFSET -8.910001 -6.269997 0.000000
		CHANNELS 6 Xposition Yposition Zposition Xrotation Yrotation Zrotation
		JOINT RightLeg
		{
			OFFSET -3.274891 -44.516289 -4.654919
			CHANNELS 6 Xposition Yposition Zposition Xrotation Yrotation Zrotation
			JOINT RightFoot
			{
				OFFSET -2.969807 -40.366165 -4.280296
				CHANNELS 6 Xposition Yposition Zposition Xrotation Yrotation Zrotation
				JOINT RightToeBase
				{
					OFFSET -0.001085 -6.262317 12.954750
					CHANNELS 6 Xposition Yposition Zposition Xrotation Yrotation Zrotation
					JOINT RightToeBaseEnd
					{
						OFFSET -0.000669 -0.000407 8.000004
						CHANNELS 6 Xposition Yposition Zposition Xrotation Yrotation Zrotation
						End Site
						{
							OFFSET 0.000000 8.000001 0.000404
						}
					}
				}
			}
		}
	}
	JOINT Spine
	{
		OFFSET 0.000000 7.000000 0.000000
		CHANNELS 6 Xposition Yposition Zposition Xrotation Yrotation Zrotation
		JOINT Spine1
		{
			OFFSET 0.016452 12.471863 -2.212891
			CHANNELS 3 Xrotation Yrotation Zrotation
			JOINT Spine2
			{
				OFFSET 0.008337 12.616928 -1.121449
				CHANNELS 3 Xrotation Yrotation Zrotation
				JOINT LeftShoulder
				{
					OFFSET 7.000183 14.255112 -0.024235
					CHANNELS 6 Xposition Yposition Zposition Xrotation Yrotation Zrotation
					JOINT LeftArm
					{
						OFFSET 10.707253 0.000000 0.000000
						CHANNELS 6 Xposition Yposition Zposition Xrotation Yrotation Zrotation
						JOINT LeftForeArm
						{
							OFFSET 27.305471 -0.000366 0.000008
							CHANNELS 6 Xposition Yposition Zposition Xrotation Yrotation Zrotation
							JOINT LeftHand
							{
								OFFSET 26.697147 -0.000336 -0.000004
								CHANNELS 6 Xposition Yposition Zposition Xrotation Yrotation Zrotation
								JOINT LeftHandThumb1
								{
									OFFSET 4.348755 -0.791260 4.283787
									CHANNELS 6 Xposition Yposition Zposition Xrotation Yrotation Zrotation
									JOINT LeftHandThumb2
									{
										OFFSET 2.512581 -0.534927 0.708366
										CHANNELS 6 Xposition Yposition Zposition Xrotation Yrotation Zrotation
										JOINT LeftHandThumb3
										{
											OFFSET 2.543137 -0.000031 0.000011
											CHANNELS 6 Xposition Yposition Zposition Xrotation Yrotation Zrotation
											JOINT LeftHandThumb4
											{
												OFFSET 2.666748 -0.000015 -0.000008
												CHANNELS 6 Xposition Yposition Zposition Xrotation Yrotation Zrotation
												End Site
												{
													OFFSET 0.000023 2.666748 -0.004532
												}
											}
										}
									}
								}
								JOINT LeftHandIndex1
								{
									OFFSET 8.821983 0.205521 3.471325
									CHANNELS 6 Xposition Yposition Zposition Xrotation Yrotation Zrotation
									JOINT LeftHandIndex2
									{
										OFFSET 4.225319 -0.000061 -0.000263
										CHANNELS 6 Xposition Yposition Zposition Xrotation Yrotation Zrotation
										JOINT LeftHandIndex3
										{
											OFFSET 2.652321 -0.000183 -0.092785
											CHANNELS 6 Xposition Yposition Zposition Xrotation Yrotation Zrotation
											JOINT LeftHandIndex4
											{
												OFFSET 1.953438 -0.000244 -0.136719
												CHANNELS 6 Xposition Yposition Zposition Xrotation Yrotation Zrotation
												End Site
												{
													OFFSET 0.000000 1.958221 -0.003326
												}
											}
										}
									}
								}
								JOINT LeftHandMiddle1
								{
									OFFSET 8.809891 0.503006 1.303833
									CHANNELS 6 Xposition Yposition Zposition Xrotation Yrotation Zrotation
									JOINT LeftHandMiddle2
									{
										OFFSET 4.863251 -0.000061 0.000000
										CHANNELS 6 Xposition Yposition Zposition Xrotation Yrotation Zrotation
										JOINT LeftHandMiddle3
										{
											OFFSET 2.765236 -0.000046 -0.000172
											CHANNELS 6 Xposition Yposition Zposition Xrotation Yrotation Zrotation
											JOINT LeftHandMiddle4
											{
												OFFSET 2.005630 -0.000031 -0.000252
												CHANNELS 6 Xposition Yposition Zposition Xrotation Yrotation Zrotation
												End Site
												{
													OFFSET 0.000031 2.005630 -0.003410
												}
											}
										}
									}
								}
								JOINT LeftHandRing1
								{
									OFFSET 8.893768 0.378464 -0.793804
									CHANNELS 6 Xposition Yposition Zposition Xrotation Yrotation Zrotation
									JOINT LeftHandRing2
									{
										OFFSET 4.537758 -0.000061 -0.000282
										CHANNELS 6 Xposition Yposition Zposition Xrotation Yrotation Zrotation
										JOINT LeftHandRing3
										{
											OFFSET 2.304527 -0.000031 -0.000286
											CHANNELS 6 Xposition Yposition Zposition Xrotation Yrotation Zrotation
											JOINT LeftHandRing4
											{
												OFFSET 1.923347 -0.000031 -0.000359
												CHANNELS 6 Xposition Yposition Zposition Xrotation Yrotation Zrotation
												End Site
												{
													OFFSET 0.000023 1.923355 -0.003269
												}
											}
										}
									}
								}
								JOINT LeftHandPinky1
								{
									OFFSET 8.882278 -0.317368 -2.489822
									CHANNELS 6 Xposition Yposition Zposition Xrotation Yrotation Zrotation
									JOINT LeftHandPinky2
									{
										OFFSET 3.044098 -0.000046 0.000000
										CHANNELS 6 Xposition Yposition Zposition Xrotation Yrotation Zrotation
										JOINT LeftHandPinky3
										{
											OFFSET 1.974503 -0.000061 0.000000
											CHANNELS 6 Xposition Yposition Zposition Xrotation Yrotation Zrotation
											JOINT LeftHandPinky4
											{
												OFFSET 1.666611 -0.000061 0.000000
												CHANNELS 6 Xposition Yposition Zposition Xrotation Yrotation Zrotation
												End Site
												{
													OFFSET 0.000084 1.666611 -0.002834
												}
											}
										}
									}
								}
							}
						}
					}
				}
				JOINT RightShoulder
				{
					OFFSET -6.999821 14.255295 -0.024235
					CHANNELS 6 Xposition Yposition Zposition Xrotation Yrotation Zrotation
					JOINT RightArm
					{
						OFFSET -10.707279 0.000565 0.000000
						CHANNELS 6 Xposition Yposition Zposition Xrotation Yrotation Zrotation
						JOINT RightForeArm
						{
							OFFSET -27.305601 0.000351 0.000004
							CHANNELS 6 Xposition Yposition Zposition Xrotation Yrotation Zrotation
							JOINT RightHand
							{
								OFFSET -26.696999 0.000336 -0.000004
								CHANNELS 6 Xposition Yposition Zposition Xrotation Yrotation Zrotation
								JOINT RightHandThumb1
								{
									OFFSET -4.348389 -0.791168 4.284168
									CHANNELS 6 Xposition Yposition Zposition Xrotation Yrotation Zrotation
									JOINT RightHandThumb2
									{
										OFFSET -2.512535 -0.534851 0.708588
										CHANNELS 6 Xposition Yposition Zposition Xrotation Yrotation Zrotation
										JOINT RightHandThumb3
										{
											OFFSET -2.541588 0.000183 0.088821
											CHANNELS 6 Xposition Yposition Zposition Xrotation Yrotation Zrotation
											JOINT RightHandThumb4
											{
												OFFSET -2.665123 0.000168 0.093136
												CHANNELS 6 Xposition Yposition Zposition Xrotation Yrotation Zrotation
												End Site
												{
													OFFSET -0.000015 2.666748 -0.004532
												}
											}
										}
									}
								}
								JOINT RightHandIndex1
								{
									OFFSET -8.821671 0.205734 3.472099
									CHANNELS 6 Xposition Yposition Zposition Xrotation Yrotation Zrotation
									JOINT RightHandIndex2
									{
										OFFSET -4.225319 0.000061 0.000114
										CHANNELS 6 Xposition Yposition Zposition Xrotation Yrotation Zrotation
										JOINT RightHandIndex3
										{
											OFFSET -2.652321 0.000183 0.092697
											CHANNELS 6 Xposition Yposition Zposition Xrotation Yrotation Zrotation
											JOINT RightHandIndex4
											{
												OFFSET -1.953445 0.000259 0.136658
												CHANNELS 6 Xposition Yposition Zposition Xrotation Yrotation Zrotation
												End Site
												{
													OFFSET 0.000023 1.958221 -0.003330
												}
											}
										}
									}
								}
								JOINT RightHandMiddle1
								{
									OFFSET -8.809761 0.503220 1.304604
									CHANNELS 6 Xposition Yposition Zposition Xrotation Yrotation Zrotation
									JOINT RightHandMiddle2
									{
										OFFSET -4.863251 0.000061 0.000134
										CHANNELS 6 Xposition Yposition Zposition Xrotation Yrotation Zrotation
										JOINT RightHandMiddle3
										{
											OFFSET -2.763550 0.000198 0.096584
											CHANNELS 6 Xposition Yposition Zposition Xrotation Yrotation Zrotation
											JOINT RightHandMiddle4
											{
												OFFSET -2.000740 0.000259 0.139965
												CHANNELS 6 Xposition Yposition Zposition Xrotation Yrotation Zrotation
												End Site
												{
													OFFSET 0.000023 2.005630 -0.003410
												}
											}
										}
									}
								}
								JOINT RightHandRing1
								{
									OFFSET -8.893829 0.378677 -0.793022
									CHANNELS 6 Xposition Yposition Zposition Xrotation Yrotation Zrotation
									JOINT RightHandRing2
									{
										OFFSET -4.537766 0.000061 0.000122
										CHANNELS 6 Xposition Yposition Zposition Xrotation Yrotation Zrotation
										JOINT RightHandRing3
										{
											OFFSET -2.303116 0.000168 0.080490
											CHANNELS 6 Xposition Yposition Zposition Xrotation Yrotation Zrotation
											JOINT RightHandRing4
											{
												OFFSET -1.918663 0.000259 0.134224
												CHANNELS 6 Xposition Yposition Zposition Xrotation Yrotation Zrotation
												End Site
												{
													OFFSET 0.000023 1.923355 -0.003269
												}
											}
										}
									}
								}
								JOINT RightHandPinky1
								{
									OFFSET -8.882500 -0.317154 -2.489040
									CHANNELS 6 Xposition Yposition Zposition Xrotation Yrotation Zrotation
									JOINT RightHandPinky2
									{
										OFFSET -3.047798 0.000046 0.000084
										CHANNELS 6 Xposition Yposition Zposition Xrotation Yrotation Zrotation
										JOINT RightHandPinky3
										{
											OFFSET -1.975693 0.000137 0.069050
											CHANNELS 6 Xposition Yposition Zposition Xrotation Yrotation Zrotation
											JOINT RightHandPinky4
											{
												OFFSET -1.664574 0.000259 0.116447
												CHANNELS 6 Xposition Yposition Zposition Xrotation Yrotation Zrotation
												End Site
												{
													OFFSET 0.000092 1.668640 -0.002842
												}
											}
										}
									}
								}
							}
						}
					}
				}
				JOINT Neck
				{
					OFFSET 0.000160 12.666656 -0.021534
					CHANNELS 6 Xposition Yposition Zposition Xrotation Yrotation Zrotation
					JOINT Head
					{
						OFFSET -0.006689 9.847397 1.740372
						CHANNELS 3 Xrotation Yrotation Zrotation
						JOINT HeadEnd
						{
							OFFSET 0.000000 20.000000 0.000000
							CHANNELS 3 Xrotation Yrotation Zrotation
							End Site
							{
								OFFSET 0.000000 20.000000 0.000000
							}
						}
					}
				}
			}
		}
	}
}
MOTION
Frames: 3
Frame Time: 0.008333
0.000000 99.992928 0.000000 -0.000000 0.000000 -0.000000 8.910001 -6.270007 0.000000 -6.478500 0.283528 -4.931914 3.858773 -44.428230 -5.033417 -0.205580 -0.012733 -0.000487 3.498570 -40.269054 -4.767725 6.684445 0.287814 4.931394 0.000008 -6.262318 12.954720 -0.000000 0.000000 -0.000000 0.000000 0.000000 8.000004 -0.000000 -0.000000 0.000000 -8.910002 -6.270007 0.000001 -5.992653 -0.219170 4.184596 -3.274890 -44.516277 -4.654924 -0.001087 -0.001805 -0.000189 -2.969805 -40.366161 -4.280292 5.993741 -0.217282 -4.184598 -0.001086 -6.262317 12.954751 0.000000 -0.000007 -0.000000 -0.000668 -0.000407 8.000004 0.000000 -0.000000 -0.000000 0.000002 7.000004 -0.000006 10.061310 0.006551 0.074417 -4.981955 0.001609 -0.036992 -4.981956 0.001609 -0.036992 7.000183 14.255112 -0.024231 0.000000 -0.000000 -0.000000 10.707253 -0.000015 0.000010 -0.000002 -0.000015 -0.000007 27.305464 -0.000379 0.000011 0.000002 0.000025 0.000007 26.697144 -0.000351 0.000003 0.000000 -0.000010 0.000000 4.348747 -0.791275 4.283791 0.000000 0.000000 -0.000000 2.512581 -0.534927 0.708366 -0.000000 0.000000 -0.000000 2.543137 -0.000031 0.000011 0.000000 -0.000000 0.000000 2.666756 0.000000 -0.000008 0.000000 -0.000000 0.000000 8.821983 0.205521 3.471329 0.000000 0.000000 -0.000000 4.225311 -0.000076 -0.000259 -0.000000 0.000000 0.000000 2.652313 -0.000183 -0.092785 -0.000000 -0.000001 0.000000 1.953423 -0.000244 -0.136711 0.000000 0.000000 -0.000000 8.809891 0.503006 1.303837 0.000000 0.000000 -0.000000 4.863251 -0.000076 0.000008 0.000000 0.000000 -0.000000 2.765244 -0.000076 -0.000172 -0.000000 -0.000000 -0.000000 2.005630 -0.000015 -0.000252 0.000000 0.000000 -0.000000 8.893776 0.378448 -0.793800 0.000000 0.000000 -0.000000 4.537758 -0.000046 -0.000282 -0.000000 0.000000 -0.000000 2.304535 -0.000000 -0.000282 0.000000 0.000000 -0.000000 1.923332 -0.000031 -0.000355 0.000000 0.000000 -0.000000 8.882294 -0.317368 -2.489822 0.000000 0.000000 -0.000000 3.044106 -0.000015 0.000008 0.000000 -0.000000 -0.000000 1.974503 -0.000046 0.000004 0.000000 -0.000000 -0.000000 1.666611 -0.000061 0.000004 0.000000 -0.000000 -0.000000 -6.999820 14.255310 -0.024231 0.000000 -0.000000 -0.000000 -10.707281 0.000562 0.000008 -0.000001 0.000005 0.000007 -27.305601 0.000332 0.000009 -0.000006 -0.000015 -0.000007 -26.696999 0.000315 0.000000 0.000007 0.000010 -0.000000 -4.348396 -0.791153 4.284168 0.000000 -0.000000 -0.000000 -2.512535 -0.534805 0.708588 0.000000 -0.000000 -0.000000 -2.541595 0.000214 0.088821 0.000000 -0.000000 -0.000000 -2.665123 0.000214 0.093140 0.000000 -0.000000 -0.000000 -8.821663 0.205719 3.472103 0.000000 0.000000 -0.000000 -4.225327 0.000046 0.000118 -0.000000 0.000000 -0.000000 -2.652321 0.000198 0.092699 0.000000 0.000000 0.000000 -1.953438 0.000290 0.136661 -0.000000 0.000000 -0.000000 -8.809761 0.503204 1.304604 -0.000000 -0.000000 -0.000000 -4.863251 0.000076 0.000137 0.000000 0.000000 -0.000000 -2.763550 0.000214 0.096579 -0.000000 0.000000 0.000000 -2.000740 0.000275 0.139967 0.000000 0.000000 -0.000000 -8.893822 0.378662 -0.793018 0.000000 0.000000 -0.000000 -4.537773 0.000061 0.000126 0.000000 -0.000000 -0.000000 -2.303123 0.000183 0.080489 0.000000 0.000001 -0.000000 -1.918671 0.000290 0.134219 0.000000 0.000000 -0.000000 -8.882492 -0.317169 -2.489040 0.000000 -0.000000 -0.000000 -3.047798 0.000031 0.000084 0.000000 0.000000 -0.000000 -1.975693 0.000153 0.069049 0.000000 -0.000001 0.000000 -1.664559 0.000275 0.116450 0.000000 -0.000000 -0.000000 0.000161 12.666630 -0.021535 -10.120020 0.003517 -0.039032 10.022618 0.003330 0.038325 -0.000000 -0.000000 -0.000000 
-8.520514 99.096146 52.547489 -0.091090 17.729030 0.093018 8.910000 -6.270014 0.000004 -0.000976 0.002044 -0.002382 3.858772 -44.428219 -5.033417 -0.015251 -0.003277 0.000166 3.498571 -40.269047 -4.767726 0.029366 -0.051895 -0.017862 0.000010 -6.262319 12.954729 -0.007524 0.059468 0.012605 0.000001 0.000000 8.000004 0.000000 -0.000000 0.000000 -8.910000 -6.270014 0.000002 -0.005540 0.010350 -0.005970 -3.274891 -44.516296 -4.654918 0.002048 -0.001332 0.003383 -2.969805 -40.366161 -4.280303 0.008356 -0.002647 -0.005325 -0.001087 -6.262317 12.954751 -0.041177 -0.060304 -0.005352 -0.000669 -0.000407 7.999997 0.000000 0.000001 0.000000 0.000000 6.999984 -0.000009 0.014201 0.000545 0.004312 -0.000271 0.000346 -0.001164 -0.000271 0.000450 -0.001112 7.000181 14.255126 -0.024232 -0.754566 -0.799152 2.849595 10.707254 -0.000027 0.000002 -14.291506 2.788177 -2.658440 27.305460 -0.000356 0.000011 -0.003393 -0.252583 0.006903 26.697151 -0.000329 -0.000007 6.373450 0.764785 2.677177 4.348745 -0.791290 4.283784 0.000001 -0.000003 -0.000000 2.512588 -0.534927 0.708363 -0.000000 0.000001 0.000000 2.543137 -0.000046 -0.000002 0.000001 -0.000001 -0.000001 2.666763 -0.000000 -0.000007 0.000000 0.000000 0.000000 8.821976 0.205505 3.471324 0.000000 -0.000000 -0.000000 4.225310 -0.000079 -0.000258 -0.000000 0.000001 -0.000014 2.652297 -0.000183 -0.092784 -0.000000 -0.000000 0.000000 1.953434 -0.000244 -0.136706 0.000000 -0.000001 0.000001 8.809891 0.503005 1.303832 0.000001 -0.000001 -0.000000 4.863241 -0.000083 -0.000001 0.000001 -0.000000 0.000007 2.765235 -0.000061 -0.000179 0.000000 -0.000001 0.000000 2.005631 -0.000031 -0.000258 0.000001 0.000000 -0.000000 8.893769 0.378464 -0.793804 0.000000 -0.000001 -0.000000 4.537749 -0.000061 -0.000281 0.000000 -0.000001 -0.000000 2.304520 -0.000031 -0.000285 0.000000 0.000000 -0.000000 1.923333 -0.000045 -0.000359 -0.000001 0.000002 0.000000 8.882293 -0.317399 -2.489827 0.000001 -0.000002 -0.000000 3.044115 -0.000017 0.000004 -0.233201 0.089412 -0.624596 1.974504 -0.000061 0.000002 -0.000001 0.000001 -0.000000 1.666611 -0.000061 0.000002 0.000000 0.000001 0.000000 -6.999821 14.255287 -0.024239 -0.054410 0.173999 -2.298026 -10.707280 0.000575 0.000003 -7.487465 -1.425790 4.394180 -27.305597 0.000324 -0.000005 -0.001964 0.434860 0.003466 -26.697004 0.000296 -0.000005 4.971828 -0.955343 -1.256372 -4.348396 -0.791153 4.284174 0.000000 0.000000 -0.000000 -2.512541 -0.534867 0.708583 0.000000 0.000002 0.000000 -2.541594 0.000183 0.088818 -0.000000 0.000002 0.000000 -2.665106 0.000168 0.093146 0.000000 0.000002 0.000000 -8.821661 0.205719 3.472112 0.000000 0.000001 -0.000000 -4.225327 0.000054 0.000117 -0.000001 0.000002 -0.000014 -2.652336 0.000198 0.092676 0.000000 -0.000001 -0.000000 -1.953452 0.000305 0.136653 -0.000000 0.000001 0.000000 -8.809752 0.503204 1.304612 0.000000 0.000001 -0.000000 -4.863245 0.000074 0.000147 -0.000001 0.000001 -0.000017 -2.763558 0.000229 0.096579 -0.000000 -0.000000 0.000000 -2.000755 0.000244 0.139979 -0.000000 -0.000000 -0.000000 -8.893821 0.378662 -0.793009 0.000000 0.000001 0.000000 -4.537756 0.000081 0.000116 0.000001 0.000003 0.000034 -2.303121 0.000138 0.080500 -0.000000 0.000003 0.000000 -1.918678 0.000244 0.134220 0.000000 0.000001 0.000000 -8.882491 -0.317154 -2.489028 0.000000 0.000001 -0.000000 -3.047804 0.000033 0.000094 -0.234456 -0.089807 0.627643 -1.975694 0.000153 0.069040 -0.000000 -0.000001 -0.000000 -1.664567 0.000274 0.116445 0.000000 -0.000001 0.000000 0.000159 12.666631 -0.021533 -0.001216 0.001500 0.002574 -0.005024 -0.002922 -0.001553 0.000000 0.000001 0.000000 
-8.322458 99.099220 52.241764 7.659065 93.868266 -7.646461 8.910000 -6.269993 -0.000003 -0.032315 0.026529 -0.025481 3.858773 -44.428230 -5.033421 -0.008832 -0.003889 -0.001084 3.498579 -40.269051 -4.767726 0.100843 -0.187121 -0.028998 0.000012 -6.262319 12.954723 -0.042417 0.200487 0.014584 0.000005 0.000000 8.000000 -0.000000 0.000000 0.000000 -8.910007 -6.269990 -0.000003 -0.036928 0.072099 -0.039019 -3.274891 -44.516304 -4.654921 0.019735 -0.007554 0.018999 -2.969806 -40.366161 -4.280298 0.038006 -0.028677 -0.018912 -0.001082 -6.262317 12.954753 -0.146618 -0.203407 0.008702 -0.000668 -0.000407 8.000004 0.000000 -0.000001 -0.000000 -0.000004 7.000019 -0.000012 0.097867 0.002746 0.027791 -0.005170 0.000842 -0.008145 -0.005168 0.001384 -0.007948 7.000177 14.255122 -0.024237 -3.352939 -4.335925 14.159039 10.707253 0.000012 -0.000014 -74.563980 18.093931 -4.391530 27.305466 -0.000371 0.000016 -0.016930 -1.262920 0.034726 26.697151 -0.000347 -0.000009 31.650250 6.642295 12.175314 4.348748 -0.791258 4.283792 -0.000001 -0.000000 -0.000000 2.512580 -0.534926 0.708376 0.000000 -0.000000 0.000000 2.543137 -0.000032 0.000018 0.000001 0.000001 0.000000 2.666756 -0.000002 -0.000023 0.000003 0.000001 0.000000 8.821982 0.205507 3.471336 -0.000001 -0.000001 0.000000 4.225307 -0.000064 -0.000250 0.000006 -0.000001 -0.000032 2.652308 -0.000186 -0.092800 0.000005 -0.000001 -0.000001 1.953420 -0.000261 -0.136722 0.000004 0.000000 0.000001 8.809890 0.502989 1.303833 0.000003 -0.000001 0.000000 4.863254 -0.000089 0.000015 0.000002 0.000000 0.000059 2.765227 -0.000076 -0.000165 -0.000000 0.000000 0.000001 2.005638 -0.000034 -0.000248 0.000006 -0.000001 -0.000000 8.893768 0.378450 -0.793802 0.000000 -0.000001 -0.000000 4.537756 -0.000044 -0.000266 -0.000001 0.000000 0.000001 2.304529 -0.000032 -0.000268 0.000001 0.000000 -0.000001 1.923341 -0.000026 -0.000362 -0.000004 0.000000 -0.000000 8.882287 -0.317370 -2.489813 0.000004 -0.000001 -0.000000 3.044104 -0.000005 0.000007 -1.155965 0.472337 -3.119489 1.974504 -0.000044 -0.000019 -0.000001 0.000000 -0.000000 1.666612 -0.000042 -0.000014 -0.000005 0.000001 -0.000000 -6.999826 14.255303 -0.024237 -0.237288 0.889299 -11.518537 -10.707291 0.000567 0.000001 -36.548588 -12.460858 19.464808 -27.305603 0.000348 -0.000001 -0.010078 2.172033 0.017531 -26.696999 0.000321 -0.000012 24.802420 -5.775218 -5.333721 -4.348388 -0.791138 4.284167 0.000000 0.000000 -0.000000 -2.512536 -0.534854 0.708578 0.000002 0.000000 0.000000 -2.541574 0.000168 0.088818 0.000000 -0.000000 0.000000 -2.665138 0.000182 0.093124 0.000001 0.000000 -0.000000 -8.821655 0.205733 3.472102 0.000000 0.000000 0.000000 -4.225328 0.000057 0.000117 -0.000003 0.000000 -0.000071 -2.652335 0.000198 0.092701 -0.000000 -0.000000 -0.000001 -1.953477 0.000258 0.136660 -0.000000 0.000000 0.000000 -8.809746 0.503219 1.304606 0.000000 0.000000 0.000000 -4.863261 0.000093 0.000136 -0.000004 -0.000000 -0.000083 -2.763525 0.000198 0.096581 -0.000001 0.000000 -0.000001 -2.000764 0.000244 0.139968 -0.000001 -0.000000 0.000001 -8.893827 0.378693 -0.793017 0.000000 0.000000 -0.000001 -4.537763 0.000051 0.000121 0.000004 -0.000000 0.000125 -2.303124 0.000179 0.080493 0.000001 0.000000 0.000000 -1.918682 0.000259 0.134224 0.000000 -0.000001 0.000001 -8.882484 -0.317139 -2.489035 0.000000 0.000000 0.000000 -3.047799 0.000027 0.000086 -1.162152 -0.474575 3.134731 -1.975687 0.000138 0.069041 -0.000001 -0.000000 0.000001 -1.664565 0.000273 0.116447 -0.000000 -0.000001 -0.000001 0.000157 12.666646 -0.021533 -0.005924 0.000170 0.012122 -0.028599 -0.012791 -0.004136 0.000000 0.000000 0.000000 
